PathFileType	4	(X/Y/Z)	27_2_73_p0_0-315_filt_butterworth.trc
DataRate	CameraRate	NumFrames	NumMarkers	Units	OrigDataRate	OrigDataStartFrame	OrigNumFrames
59.0	59.0	4	27	m	59.0	0	315
Frame#	Time	RHip			RKnee			RAnkle			RBigToe			RSmallToe			RHeel			LHip			LKnee			LAnkle			LBigToe			LSmallToe			LHeel			Neck			Head			Nose			RShoulder			RElbow			RWrist			RThumb			RIndex			RPinky			LShoulder			LElbow			LWrist			LThumb			LIndex			LPinky			
		X1	Y1	Z1	X2	Y2	Z2	X3	Y3	Z3	X4	Y4	Z4	X5	Y5	Z5	X6	Y6	Z6	X7	Y7	Z7	X8	Y8	Z8	X9	Y9	Z9	X10	Y10	Z10	X11	Y11	Z11	X12	Y12	Z12	X13	Y13	Z13	X14	Y14	Z14	X15	Y15	Z15	X16	Y16	Z16	X17	Y17	Z17	X18	Y18	Z18	X19	Y19	Z19	X20	Y20	Z20	X21	Y21	Z21	X22	Y22	Z22	X23	Y23	Z23	X24	Y24	Z24	X25	Y25	Z25	X26	Y26	Z26	X27	Y27	Z27	
0	0.0	0.13082320373680015	0.6226225952115655	0.8676762360148486	0.1569334388832342	0.705386249438824	1.3524089164981672	0.17916636815946999	0.8104996646953212	1.8225129413598855	0.12901388786295045	0.6039442139424225	1.8531632315250461	0.18010351700514862	0.59709958335538	1.8315222168203689	0.16209922037219457	0.906020078533319	1.8950714975007463	-0.0867253895580439	0.6562827868096605	0.8905041887192423	-0.05392326062020045	0.7419199257844219	1.3721126416903169	-0.02795571003557405	0.7922347802252852	1.8237705891924716	-0.03886613180437788	0.5811173820614687	1.8304381537544063	-0.08521764630253191	0.6480595838934692	1.8474864085985778	0.0012882622605004013	0.8566940584388724	1.8797013879504658	-0.0023486852405021305	0.5668840528458183	0.3227587147578688	0.0019634006256619508	0.47699166490892103	0.07881396364976416	-0.024182670076063385	0.4231979870284043	0.19801523803655566	0.16053838518890748	0.5408218785506618	0.40490780300899276	0.19304738918327607	0.5070729865244165	0.6805913233362981	0.09687912390048661	0.46754517972830445	0.919012496633678	0.017784976886602608	0.4344351879721322	0.9859265326373877	0.01582394490775436	0.4780368906751064	1.0235452702787475	0.018244180487999254	0.5062395302031324	1.039906513254465	-0.16366236881022092	0.5684693597012774	0.41862547979043774	-0.18495724909257197	0.6128725994389914	0.6914898234784428	-0.08528421928424491	0.4790079329174643	0.9095455836439332	0.029094365638015755	0.398665094738862	0.9367286049057615	0.02418455343764308	0.40961641317487907	0.9709083322800565	-0.0007651115973719518	0.47583103548935657	1.0286957648359278
1	0.0169491525423728	0.13181509446072132	0.6173329399890841	0.8653221859292036	0.15675821695199355	0.705409505852958	1.352402943379786	0.18395332444058313	0.7996819461675542	1.8154708668424393	0.129400094837597	0.5998621109593295	1.8486350378261684	0.18254422902048653	0.5977872545032096	1.8289852746069069	0.16630498464055432	0.8953598770783855	1.889915268782641	-0.08642534161018486	0.6562743252384321	0.8857641609048934	-0.05419300861276703	0.7425895005310968	1.3701262097224813	-0.025005645819857387	0.7934790593573773	1.8242993470654947	-0.036414181161673366	0.5891992667709796	1.8347023046175144	-0.08530938517058388	0.6483407815046983	1.847665882674013	0.003918816990038156	0.8580402096847562	1.8804710957342823	-0.0023187018396574038	0.5671323042041015	0.3219486384673551	0.0020242231348141836	0.4768891345149009	0.07988838080615061	-0.024209132039763923	0.4231909854290578	0.1980055094740681	0.15807109818295534	0.5406412708503423	0.4049303084283141	0.19233965430770783	0.510112774798379	0.6810221935346161	0.09691536368831541	0.4675966211886966	0.9181326152004743	0.013419001028260226	0.4375529488089318	0.9885711755024842	0.015514887914866242	0.4783016528267148	1.0244029031107538	0.020165769248832073	0.4988877745863532	1.0376750166624595	-0.1610387561556649	0.5689595841598516	0.41848399500061706	-0.1853325206111796	0.6124651877450851	0.6892275734334355	-0.08549331085749527	0.478993219451122	0.9096113208353578	0.020705516304759707	0.4184232882474012	0.9434372939160862	0.0194957786885096	0.4269126741391925	0.9774692678575974	-0.00019735089176246612	0.47595066493802185	1.0258960110992263
2	0.0338983050847457	0.13273587174788984	0.6124250605667502	0.8630565801194653	0.15709474302827267	0.7055085287781581	1.3523957018134685	0.18690615723702572	0.7931793071188534	1.81068275627181	0.13037586142031185	0.5980691369705153	1.846391370952942	0.18410489833271615	0.5980913399522925	1.8271465833166434	0.16872244479027979	0.8890230711632444	1.8868777057061485	-0.08623359018357495	0.6563130021311767	0.8820632951338259	-0.05439930826731875	0.743185816230707	1.3689983768359553	-0.023245433906653182	0.7941820026462794	1.8246095006281564	-0.034979807056964844	0.5940002623484487	1.8373107841226857	-0.08542597204619382	0.648628338430575	1.8478942517321366	0.005323039312414926	0.8590713579961283	1.8811348207138578	-0.002269023578332356	0.5672973041599318	0.3216272110611044	0.0021143709534343783	0.47697473674525637	0.08068645720679761	-0.02424542573326024	0.423177532428906	0.19798522546550085	0.15658776037296823	0.5405463291744657	0.4049440315425949	0.19207829116024738	0.5115096759699197	0.6811661933024519	0.0969638171429645	0.4676052121456157	0.917408816626628	0.010396012765236908	0.4377401115732413	0.9896616464408756	0.015206631495322335	0.47835830285439307	1.0239088148657725	0.021309009062108676	0.49446049242117	1.0363550210510535	-0.1595381607080948	0.5692442659298103	0.4184044727953764	-0.18560910999650648	0.6124353381923604	0.6879047275992959	-0.08532975908035817	0.47883888169930866	0.909631195194421	0.01635531341771742	0.42748112263687	0.9470109044183974	0.01715410067803931	0.43818886824468023	0.981545077916812	0.0008409934605655856	0.47636524986923934	1.0243898241461302
3	0.0508474576271186	0.13338040503609944	0.6091673133313554	0.861495705510279	0.1581836288843365	0.7056809223397063	1.3524171121105675	0.18782801657467255	0.7913454925778922	1.8087223723887758	0.13189321536245166	0.5992641015428014	1.84678598695428	0.18469182113358076	0.5980541971783362	1.8264968298534732	0.16926667724076874	0.8872888762526835	1.8860778881487692	-0.0861695597810051	0.6563738962869193	0.8800608255953926	-0.054431060342660265	0.743284654729849	1.368646614380894	-0.02275035541055452	0.7943523344020135	1.8247163258547523	-0.034622954956352696	0.595296987743705	1.838112844458135	-0.08552667029195578	0.6488244424277237	1.8480809755985832	0.005516753696123228	0.8607913160880587	1.882139537131477	-0.0021753659156597926	0.5673563854075567	0.3219484962480389	0.0022389910634749636	0.47724698582605257	0.081299760911168	-0.024289604591317987	0.423143405265502	0.19795049770199855	0.15614698075049474	0.5405298348232956	0.40494377555860056	0.19240602836607285	0.5115484889564643	0.680947405863095	0.09702862521871916	0.467516794563013	0.9167850093314186	0.010089986793649511	0.43602853630850313	0.9894924913072252	0.014909269632008882	0.4779420904776519	1.022807880494192	0.021621253815782865	0.4931950916587583	1.0359808254678726	-0.15951580332434231	0.5692187078959874	0.4183994982289433	-0.18570538357222244	0.6125070627250027	0.6875757675787484	-0.08444284319053476	0.47868500571444283	0.9096111579189781	0.017879624632781786	0.4252455619220182	0.9474094884452638	0.018148755027166875	0.44175258960508235	0.9823132178077194	0.002214645714153504	0.4769826815740118	1.0242144424823516
